<svg width="943" height="277" viewBox="0 0 943 277" fill="none" xmlns="http://www.w3.org/2000/svg">
<path d="M141.57 94.611L129.55 106.625C122.91 113.258 112.15 113.258 105.51 106.625C98.87 99.9914 98.87 89.237 105.51 82.6038C112.15 75.9706 122.91 75.9706 129.55 82.6038L141.57 94.6176V94.611Z" fill="#FF7D00"/>
<path d="M237.719 94.6116L249.74 82.598C256.38 75.9647 267.14 75.9647 273.78 82.598C280.42 89.2312 280.42 99.9854 273.78 106.619C267.14 113.252 256.38 113.252 249.74 106.619L237.719 94.605V94.6116Z" fill="#67C6FF"/>
<path d="M177.658 178.715C171.856 172.917 171.848 163.494 177.65 157.688L227.194 108.109L237.712 118.619C243.514 124.417 243.522 133.84 237.719 139.646L198.685 178.708C192.887 184.51 183.464 184.518 177.658 178.715Z" fill="#FFFBF0"/>
<path d="M201.631 10.5101C207.433 16.3081 207.441 25.7308 201.638 31.5376L152.094 81.1163L141.577 70.6063C135.775 64.8082 135.767 55.3855 141.57 49.5788L180.604 10.5174C186.402 4.71537 195.824 4.7074 201.631 10.5101Z" fill="#FFFBF0"/>
<path d="M141.601 121.664C135.797 127.472 135.8 136.887 141.609 142.691C147.417 148.496 156.832 148.492 162.636 142.684L237.698 67.5694C243.503 61.7608 243.499 52.3466 237.691 46.542C231.882 40.7375 222.468 40.7407 216.663 46.5493L141.601 121.664Z" fill="#FFFBF0"/>
<path d="M323.75 141.361V51.0347H345.443V141.361H323.75Z" fill="#FFFBF0"/>
<path d="M406.336 74.5022C410.82 74.5022 414.644 75.3725 417.816 77.1001C420.987 78.8342 423.44 81.3728 425.174 84.7092C426.908 88.0521 427.772 92.0017 427.772 96.5711V141.355H408.361V102.538C408.361 98.8196 407.385 95.8986 405.44 93.782C403.494 91.672 400.831 90.6104 397.448 90.6104C394.659 90.6104 392.186 91.2237 390.024 92.4501C387.867 93.6765 386.193 95.4106 385.012 97.6524C383.826 99.8942 383.239 102.492 383.239 105.453V141.355H363.827V76.4011H380.192L383.107 88.1972H383.232C385.599 83.7993 388.771 80.4166 392.747 78.0495C396.723 75.6824 401.246 74.4956 406.323 74.4956L406.336 74.5022Z" fill="#FFFBF0"/>
<path d="M475.602 143.902C470.446 143.902 465.982 142.926 462.217 140.987C458.452 139.042 455.538 136.273 453.461 132.679C451.39 129.086 450.355 124.839 450.355 119.927V91.1261H438.177V76.409H450.355V58.5205L469.767 54.3335V76.409H495.522V91.1261H469.767V116.881C469.767 119.162 470.209 121.173 471.099 122.907C471.989 124.642 473.189 125.973 474.712 126.903C476.235 127.833 477.969 128.301 479.915 128.301C482.875 128.301 485.414 127.582 487.524 126.145C489.634 124.707 491.5 122.637 493.108 119.927L498.944 132.106C496.742 135.659 493.491 138.515 489.179 140.671C484.866 142.827 480.337 143.908 475.602 143.908V143.902Z" fill="#FFFBF0"/>
<path d="M532.947 143.262C528.463 143.262 524.639 142.391 521.467 140.664C518.296 138.93 515.843 136.391 514.109 133.055C512.375 129.712 511.511 125.762 511.511 121.193V76.4087H530.923V115.226C530.923 118.951 531.892 121.865 533.837 123.982C535.782 126.098 538.446 127.153 541.829 127.153C544.618 127.153 547.09 126.54 549.253 125.314C551.409 124.087 553.077 122.353 554.264 120.111C555.444 117.87 556.038 115.272 556.038 112.311V76.4087H575.45V141.363H559.084L556.163 129.567H556.038C553.671 133.965 550.499 137.347 546.523 139.714C542.547 142.081 538.024 143.268 532.947 143.268V143.262Z" fill="#FFFBF0"/>
<path d="M602.081 67.5255C598.699 67.5255 595.949 66.51 593.833 64.4791C591.716 62.4483 590.661 59.7845 590.661 56.4877C590.661 54.292 591.149 52.3468 592.118 50.6523C593.087 48.9643 594.419 47.6522 596.114 46.7225C597.802 45.7928 599.793 45.3247 602.075 45.3247C605.543 45.3247 608.332 46.34 610.449 48.3709C612.559 50.4017 613.62 53.1052 613.62 56.4877C613.62 58.69 613.132 60.6087 612.163 62.2571C611.187 63.9056 609.835 65.1978 608.101 66.1275C606.367 67.0572 604.356 67.5255 602.075 67.5255H602.081ZM592.441 141.361V76.4071H611.721V141.361H592.441Z" fill="#FFFBF0"/>
<path d="M661.833 143.902C656.676 143.902 652.212 142.926 648.447 140.987C644.682 139.042 641.768 136.273 639.691 132.679C637.621 129.086 636.585 124.839 636.585 119.927V91.1261H624.407V76.409H636.585V58.5205L655.997 54.3335V76.409H681.752V91.1261H655.997V116.881C655.997 119.162 656.439 121.173 657.329 122.907C658.219 124.642 659.419 125.973 660.942 126.903C662.465 127.833 664.2 128.301 666.145 128.301C669.105 128.301 671.644 127.582 673.754 126.145C675.864 124.707 677.73 122.637 679.339 119.927L685.174 132.106C682.972 135.659 679.721 138.515 675.409 140.671C671.097 142.827 666.567 143.908 661.833 143.908V143.902Z" fill="#FFFBF0"/>
<path d="M708.265 67.5255C704.883 67.5255 702.133 66.51 700.016 64.4791C697.9 62.4483 696.845 59.7845 696.845 56.4877C696.845 54.292 697.333 52.3468 698.302 50.6523C699.271 48.9643 700.603 47.6522 702.298 46.7225C703.986 45.7928 705.977 45.3247 708.259 45.3247C711.727 45.3247 714.516 46.34 716.633 48.3709C718.742 50.4017 719.804 53.1052 719.804 56.4877C719.804 58.69 719.316 60.6087 718.347 62.2571C717.371 63.9056 716.019 65.1978 714.285 66.1275C712.551 67.0572 710.54 67.5255 708.259 67.5255H708.265ZM698.625 141.361V76.4071H717.905V141.361H698.625Z" fill="#FFFBF0"/>
<path d="M768.9 143.901C761.713 143.901 755.39 142.463 749.937 139.588C744.484 136.714 740.27 132.632 737.316 127.344C734.356 122.062 732.879 115.904 732.879 108.888C732.879 101.873 734.356 95.7142 737.316 90.4327C740.277 85.1512 744.484 81.0697 749.937 78.1882C755.39 75.3134 761.713 73.876 768.9 73.876C776.087 73.876 782.41 75.3134 787.863 78.1882C793.316 81.0631 797.549 85.1446 800.549 90.4327C803.55 95.7208 805.053 101.873 805.053 108.888C805.053 115.904 803.55 122.062 800.549 127.344C797.549 132.632 793.316 136.714 787.863 139.588C782.41 142.463 776.087 143.901 768.9 143.901ZM768.9 127.786C772.368 127.786 775.368 127.027 777.907 125.504C780.445 123.981 782.41 121.805 783.808 118.97C785.206 116.135 785.898 112.779 785.898 108.882C785.898 104.985 785.199 101.629 783.808 98.7934C782.41 95.9581 780.445 93.7823 777.907 92.2591C775.368 90.736 772.368 89.9778 768.9 89.9778C765.432 89.9778 762.432 90.736 759.893 92.2591C757.354 93.7823 755.39 95.9581 753.992 98.7934C752.594 101.629 751.902 104.991 751.902 108.882C751.902 112.772 752.6 116.135 753.992 118.97C755.39 121.805 757.354 123.981 759.893 125.504C762.432 127.027 765.432 127.786 768.9 127.786Z" fill="#FFFBF0"/>
<path d="M861.765 74.5022C866.249 74.5022 870.073 75.3725 873.245 77.1001C876.416 78.8342 878.869 81.3728 880.603 84.7092C882.337 88.0521 883.201 92.0017 883.201 96.5711V141.355H863.789V102.538C863.789 98.8196 862.814 95.8986 860.868 93.782C858.923 91.672 856.26 90.6104 852.877 90.6104C850.088 90.6104 847.615 91.2237 845.453 92.4501C843.296 93.6765 841.622 95.4106 840.441 97.6524C839.254 99.8942 838.668 102.492 838.668 105.453V141.355H819.256V76.4011H835.621L838.536 88.1972H838.661C841.028 83.7993 844.2 80.4166 848.176 78.0495C852.152 75.6824 856.675 74.4956 861.752 74.4956L861.765 74.5022Z" fill="#FFFBF0"/>
<path d="M29.4542 249.311C28.7678 252.306 27.8941 254.989 26.7085 256.737C25.3356 258.858 23.4011 259.233 16.8488 259.233C12.855 259.233 12.4806 258.858 12.4806 258.172C12.3558 256.549 12.2934 252.306 12.2934 247.688V235.27C12.2934 231.089 12.4182 228.156 12.543 225.972C12.6054 224.911 12.9798 224.474 14.2903 224.412L17.9097 224.1L17.7225 222.041C13.9783 222.041 11.2326 222.228 9.04845 222.228C6.73954 222.228 2.55855 221.978 0.811267 222.041L0.686461 224.1L4.05622 224.349C5.36668 224.474 5.8035 224.786 5.8659 225.785C5.92831 227.033 5.92831 228.905 5.92831 233.273V247.501C5.92831 252.181 5.8035 255.738 5.61629 257.673C5.55389 258.671 5.05466 259.045 3.6818 259.17L0.062432 259.545L2.90475e-05 261.604C1.68491 261.604 6.67714 261.417 9.42287 261.417C13.9783 261.417 18.7209 261.479 22.4027 261.479C26.0844 261.479 28.8926 261.604 30.0782 261.666C30.4526 257.61 31.0143 252.368 31.4511 249.373L29.4542 249.311Z" fill="#FFFBF0"/>
<path d="M32.4856 231.104C35.9178 230.792 40.6604 227.859 40.6604 222.492C40.6604 219.247 38.9755 217.001 36.2298 217.001C34.2329 217.001 32.4856 218.686 32.4856 220.745C32.4856 222.867 33.9209 224.24 35.4186 224.24C35.9802 224.24 36.7914 224.053 37.2283 223.74C37.4155 223.616 37.6651 223.616 37.6651 223.928C37.6651 226.361 35.2938 228.67 32.1112 229.357L32.4856 231.104Z" fill="#FFFBF0"/>
<path d="M68.3998 255.192C67.7758 257.812 66.7773 258.936 65.9037 258.936C65.0924 258.936 64.406 258.499 64.406 256.252C64.406 252.571 64.406 242.337 64.406 240.589C64.406 239.466 64.0316 238.156 63.5324 237.344C62.6587 235.971 60.2874 233.725 54.9832 233.725C48.1188 233.725 43.3138 237.781 43.3138 241.151C43.3138 243.273 44.6867 244.084 46.122 244.084C47.058 244.084 47.8068 243.772 48.3685 243.335C48.7429 243.085 49.0549 242.586 48.9301 242.025C48.8053 241.525 48.6805 240.839 48.6805 240.215C48.6805 237.656 50.3653 235.847 53.9223 235.847C57.4793 235.847 58.7897 238.343 58.7897 240.964V243.148C56.2936 244.895 49.9909 246.892 45.6227 248.702C43.0642 249.763 42.0034 251.884 42.0034 254.443C42.0034 258.936 44.8739 262.243 49.8037 262.243C52.7367 262.243 55.9816 260.621 58.7897 257.75C59.2266 260.371 60.537 262.243 63.782 262.243C66.7149 262.243 69.3358 260.621 70.2095 255.94L68.3998 255.192ZM58.7897 252.071C58.7897 253.007 58.6649 253.943 58.4153 254.692C57.2921 257.064 55.4824 258.686 52.6743 258.686C49.8661 258.686 48.3061 256.315 48.3061 253.507C48.3061 250.948 49.5541 250.012 51.4886 248.951C53.7975 247.703 57.1049 246.33 58.7897 245.394V252.071Z" fill="#FFFBF0"/>
<path d="M78.5773 263.366C77.142 263.866 75.5196 264.802 74.6459 265.426C73.0235 266.611 72.2746 267.922 72.2746 269.544C72.2746 273.85 76.5804 276.658 83.8816 276.658C91.7443 276.658 100.294 272.727 100.294 264.552C100.294 262.43 99.3575 260.184 97.735 258.873C96.2997 257.812 94.4901 257.313 92.5556 257.313C87.1889 257.313 82.9455 257.438 79.8254 257.438C77.7037 257.438 76.0188 256.502 76.0188 254.817C76.0188 253.319 77.0796 252.134 78.4525 251.635C79.5134 252.446 81.8847 253.257 85.0048 253.257C90.8083 253.257 96.3621 250.012 96.3621 243.335C96.3621 240.776 95.4885 238.156 93.6788 236.471C94.3653 236.159 94.9893 236.034 95.6757 236.034C97.111 236.034 97.9846 236.471 98.6711 237.032C99.5447 236.595 100.918 235.347 100.98 234.287C100.98 233.538 99.7943 232.352 98.2342 232.352C96.1749 232.352 94.3029 233.6 92.1812 235.285C91.4947 234.848 89.373 233.725 85.8161 233.725C79.9502 233.725 74.5211 237.22 74.5211 243.959C74.5211 246.143 75.1452 248.514 76.8924 250.262C74.9579 251.51 72.7738 253.507 72.7738 256.502C72.7738 258.249 73.3979 259.56 74.3963 260.621C76.0188 262.368 78.2029 262.93 80.7614 262.93C83.0079 262.992 87.1889 262.992 91.7443 262.992C94.178 263.054 95.8629 264.365 95.8629 266.799C95.8629 270.792 92.4932 274.1 85.3792 274.1C80.387 274.1 76.7052 271.978 76.7052 268.608C76.7052 266.611 77.8285 265.426 79.5758 264.677L78.5773 263.366ZM85.3792 235.847C89.373 235.847 90.3715 239.716 90.3715 243.46C90.3715 247.703 89.1234 251.198 85.4416 251.198C81.7599 251.198 80.387 247.329 80.387 243.522C80.387 238.842 82.0095 235.847 85.3792 235.847Z" fill="#FFFBF0"/>
<path d="M125.036 253.132C123.289 257.438 120.855 259.061 117.235 259.061C114.427 259.061 112.368 258 110.995 255.878C109.872 254.193 108.998 251.323 109.123 248.14C111.931 248.202 115.301 248.202 117.485 248.14C121.416 248.078 124.412 247.766 125.597 247.329C126.596 246.892 126.97 246.018 126.97 244.77C127.033 240.839 125.223 233.725 116.112 233.725C107.376 233.725 102.82 240.652 102.82 248.514C102.82 252.259 103.756 255.816 105.566 258.062C107.625 260.745 110.683 262.243 115.551 262.243C120.792 262.243 124.911 259.872 126.908 254.193L125.036 253.132ZM115.675 235.847C119.732 235.847 121.229 240.028 121.229 243.335C121.229 244.708 120.792 245.332 119.919 245.519C118.983 245.706 117.36 245.894 114.427 245.894C112.618 245.894 110.87 245.894 109.248 245.894C109.435 241.026 111.37 235.847 115.675 235.847Z" fill="#FFFBF0"/>
<path d="M130.962 261.557C132.896 261.557 135.08 261.369 137.639 261.369C139.948 261.369 143.13 261.557 144.815 261.557L144.877 259.56C141.633 259.435 141.071 259.123 141.008 257.875C140.884 256.44 140.884 253.943 140.884 251.447V244.396C140.884 243.023 141.071 242.087 141.57 241.151C143.068 238.655 145.314 237.157 148.31 237.157C150.494 237.157 151.679 238.031 152.428 239.528C152.99 240.589 153.115 241.338 153.052 249.076C153.052 253.694 152.927 256.564 152.803 257.875C152.678 259.061 152.116 259.373 149.183 259.56L149.121 261.557C150.743 261.557 152.678 261.369 155.611 261.369C158.481 261.369 160.79 261.557 162.912 261.557L163.037 259.56C159.168 259.31 158.793 259.248 158.793 257.875V241.588C158.793 240.028 158.544 238.655 157.982 237.594C156.984 235.597 154.862 233.725 150.681 233.725C146.188 233.725 143.13 236.408 140.884 238.53C140.884 237.656 140.634 235.035 140.509 233.912C137.514 234.536 134.207 234.786 131.211 234.848L131.086 236.845C134.456 236.908 134.893 237.032 134.955 237.906C135.08 239.528 135.08 242.212 135.08 245.457V250.699C135.08 253.507 135.018 255.816 134.893 257.688C134.831 259.185 134.269 259.435 130.962 259.56V261.557Z" fill="#FFFBF0"/>
<path d="M189.769 252.633C188.022 257.126 185.775 259.061 181.719 259.061C178.911 259.061 176.664 257.812 175.167 255.504C173.981 253.569 173.357 250.761 173.357 247.578C173.357 241.088 175.978 235.847 180.97 235.847C184.527 235.847 185.9 237.469 185.9 240.215C185.9 240.901 185.713 241.588 185.65 242.149C185.526 242.711 185.775 243.21 186.15 243.46C186.524 243.834 187.211 244.021 187.772 244.021C189.582 244.021 191.142 242.898 191.142 240.527C191.142 236.533 187.148 233.725 181.282 233.725C172.359 233.725 166.93 240.215 166.93 248.39C166.93 252.571 167.99 255.94 169.925 258.187C172.234 260.933 175.416 262.243 179.972 262.243C186.337 262.243 189.956 258.811 191.641 253.631L189.769 252.633Z" fill="#FFFBF0"/>
<path d="M218.275 253.132C216.527 257.438 214.094 259.061 210.474 259.061C207.666 259.061 205.607 258 204.234 255.878C203.111 254.193 202.237 251.323 202.362 248.14C205.17 248.202 208.54 248.202 210.724 248.14C214.655 248.078 217.651 247.766 218.836 247.329C219.835 246.892 220.209 246.018 220.209 244.77C220.271 240.839 218.462 233.725 209.351 233.725C200.615 233.725 196.059 240.652 196.059 248.514C196.059 252.259 196.995 255.816 198.805 258.062C200.864 260.745 203.922 262.243 208.789 262.243C214.031 262.243 218.15 259.872 220.147 254.193L218.275 253.132ZM208.914 235.847C212.97 235.847 214.468 240.028 214.468 243.335C214.468 244.708 214.031 245.332 213.157 245.519C212.221 245.706 210.599 245.894 207.666 245.894C205.856 245.894 204.109 245.894 202.487 245.894C202.674 241.026 204.608 235.847 208.914 235.847Z" fill="#FFFBF0"/>
<path d="M264.993 255.192C264.369 257.812 263.371 258.936 262.497 258.936C261.686 258.936 261 258.499 261 256.252C261 252.571 261 242.337 261 240.589C261 239.466 260.625 238.156 260.126 237.344C259.252 235.971 256.881 233.725 251.577 233.725C244.712 233.725 239.907 237.781 239.907 241.151C239.907 243.273 241.28 244.084 242.716 244.084C243.652 244.084 244.4 243.772 244.962 243.335C245.336 243.085 245.648 242.586 245.524 242.025C245.399 241.525 245.274 240.839 245.274 240.215C245.274 237.656 246.959 235.847 250.516 235.847C254.073 235.847 255.383 238.343 255.383 240.964V243.148C252.887 244.895 246.584 246.892 242.216 248.702C239.658 249.763 238.597 251.884 238.597 254.443C238.597 258.936 241.467 262.243 246.397 262.243C249.33 262.243 252.575 260.621 255.383 257.75C255.82 260.371 257.131 262.243 260.376 262.243C263.308 262.243 265.929 260.621 266.803 255.94L264.993 255.192ZM255.383 252.071C255.383 253.007 255.258 253.943 255.009 254.692C253.886 257.064 252.076 258.686 249.268 258.686C246.46 258.686 244.9 256.315 244.9 253.507C244.9 250.948 246.148 250.012 248.082 248.951C250.391 247.703 253.698 246.33 255.383 245.394V252.071ZM254.073 229.794C253.074 227.984 250.141 221.868 249.268 220.121C248.581 218.748 247.209 217.812 245.96 217.812C244.837 217.812 243.714 218.686 243.714 220.433C243.652 221.307 244.276 222.804 245.087 223.616C245.96 224.489 249.393 227.797 252.513 230.917L254.073 229.794Z" fill="#FFFBF0"/>
<path d="M308.986 248.078C308.986 241.525 309.174 236.72 309.236 234.037H308.3L304.618 235.472C303.121 234.599 300.687 233.725 297.442 233.725C287.957 233.725 282.777 240.402 282.777 249.014C282.777 253.382 284.15 257.064 286.209 259.185C288.081 261.12 290.89 262.243 294.135 262.243C297.442 262.243 300.437 260.933 303.183 258.499V264.302C303.183 268.546 303.058 270.73 302.996 272.04C302.871 273.164 302.06 273.538 297.192 273.975L296.943 275.972C302.247 275.66 308.175 275.473 313.791 275.473L314.041 273.413C309.985 273.288 309.423 273.101 309.361 272.228C309.236 270.605 308.986 266.861 308.986 262.181V248.078ZM297.255 235.909C299.314 235.909 301.311 236.783 302.372 238.405C302.809 239.092 302.996 239.653 303.121 240.464C303.245 241.962 303.245 244.458 303.245 250.137C303.245 254.568 303.058 255.254 302.621 255.94C301.56 257.563 299.876 258.998 296.818 258.998C294.634 258.998 292.637 258.062 291.264 256.128C289.891 254.193 289.142 251.073 289.142 247.703C289.142 242.149 291.389 235.909 297.255 235.909Z" fill="#FFFBF0"/>
<path d="M332.338 236.533C335.895 236.595 336.519 236.72 336.644 237.656C336.768 238.904 336.831 240.776 336.831 243.585V249.263C336.831 250.636 336.706 251.635 336.144 253.07C334.709 256.44 331.714 258.998 328.219 258.998C326.347 258.998 325.286 258.124 324.974 256.814C324.6 255.379 324.537 251.697 324.6 246.268C324.6 239.029 324.849 235.597 325.099 233.975C321.667 234.411 318.297 234.536 314.927 234.536L314.74 236.471C317.985 236.471 318.672 236.595 318.734 237.469C318.796 238.405 318.859 240.028 318.859 242.836C318.859 246.767 318.734 252.446 318.672 255.628C318.672 257.188 318.921 258.437 319.483 259.435C320.169 260.683 321.854 262.243 325.598 262.243C330.84 262.243 334.896 258.998 336.768 256.44C336.768 258.249 336.831 260.745 336.956 262.368C340.513 261.806 343.882 261.619 347.252 261.432L347.439 259.56C343.321 259.622 342.946 259.435 342.821 258.249C342.697 256.689 342.572 254.256 342.572 250.636V243.21C342.572 239.216 342.759 235.909 342.821 234.099C339.202 234.411 335.708 234.536 332.275 234.536L332.338 236.533Z" fill="#FFFBF0"/>
<path d="M356.413 221.619C354.354 221.619 352.856 223.179 352.856 225.238C352.856 227.36 354.354 228.608 356.163 228.608C358.223 228.608 359.783 227.297 359.783 225.176C359.783 223.054 358.597 221.619 356.413 221.619ZM363.901 259.56C360.594 259.373 359.908 259.123 359.845 257.75C359.783 256.377 359.72 254.318 359.72 250.636V243.21C359.72 238.655 359.845 235.223 359.908 233.725C356.912 234.411 352.731 234.661 349.736 234.786L349.611 236.783C353.106 236.72 353.73 236.845 353.792 237.656C353.855 238.655 353.917 240.589 353.917 243.772V250.574C353.917 254.068 353.792 256.627 353.73 257.812C353.667 258.998 353.168 259.373 349.362 259.56L349.299 261.557C351.234 261.557 353.106 261.369 356.351 261.369C359.408 261.369 361.78 261.557 363.777 261.557L363.901 259.56Z" fill="#FFFBF0"/>
<path d="M378.511 236.408C381.444 236.595 381.943 236.97 382.879 239.092C384.315 242.337 388.995 254.568 391.803 262.181C392.926 261.993 394.049 261.931 395.235 261.931C397.419 255.691 400.726 246.83 403.847 239.903C405.095 237.22 405.968 236.658 408.901 236.408L408.964 234.411C407.716 234.411 406.031 234.599 403.722 234.599C401.85 234.599 399.79 234.411 397.606 234.411L397.544 236.408L400.352 236.72C401.35 236.783 401.538 237.282 401.163 238.468C399.853 243.148 397.107 250.262 395.235 255.254C393.862 251.51 390.742 243.46 389.057 238.28C388.683 237.157 388.87 236.783 389.868 236.658L392.302 236.408L392.052 234.411C390.056 234.411 387.31 234.599 384.751 234.599C382.505 234.599 379.822 234.474 378.511 234.411V236.408Z" fill="#FFFBF0"/>
<path d="M425.038 233.725C415.989 233.725 410.935 240.277 410.935 248.202C410.935 256.252 415.365 262.243 424.663 262.243C433.462 262.243 438.642 256.44 438.642 247.766C438.642 239.528 433.525 233.725 425.038 233.725ZM424.726 235.847C427.347 235.847 429.156 237.282 430.342 239.279C431.403 241.213 432.089 244.521 432.089 248.39C432.089 252.071 431.465 255.004 430.529 256.876C429.344 259.061 427.596 260.059 425.225 260.059C422.729 260.059 420.67 258.811 419.359 256.377C418.236 254.256 417.549 250.948 417.549 247.204C417.549 243.647 418.236 240.589 419.422 238.842C420.607 237.032 422.23 235.847 424.726 235.847Z" fill="#FFFBF0"/>
<path d="M459.886 236.533C463.443 236.595 464.067 236.72 464.192 237.656C464.316 238.904 464.379 240.776 464.379 243.585V249.263C464.379 250.636 464.254 251.635 463.692 253.07C462.257 256.44 459.262 258.998 455.767 258.998C453.895 258.998 452.834 258.124 452.522 256.814C452.148 255.379 452.086 251.697 452.148 246.268C452.148 239.029 452.398 235.597 452.647 233.975C449.215 234.411 445.845 234.536 442.475 234.536L442.288 236.471C445.533 236.471 446.22 236.595 446.282 237.469C446.344 238.405 446.407 240.028 446.407 242.836C446.407 246.767 446.282 252.446 446.22 255.628C446.22 257.188 446.469 258.437 447.031 259.435C447.717 260.683 449.402 262.243 453.146 262.243C458.388 262.243 462.444 258.998 464.316 256.44C464.316 258.249 464.379 260.745 464.504 262.368C468.061 261.806 471.43 261.619 474.8 261.432L474.987 259.56C470.869 259.622 470.494 259.435 470.37 258.249C470.245 256.689 470.12 254.256 470.12 250.636V243.21C470.12 239.216 470.307 235.909 470.37 234.099C466.75 234.411 463.256 234.536 459.823 234.536L459.886 236.533Z" fill="#FFFBF0"/>
<path d="M497.244 243.46C497.057 240.776 497.119 236.97 497.619 233.725L495.622 233.163L494.873 235.347C493.937 234.536 491.441 233.725 488.82 233.725C483.516 233.725 479.147 236.783 479.147 242.149C479.147 245.644 481.082 247.703 484.202 249.014C486.386 249.95 489.756 251.26 491.878 252.259C493.5 253.007 494.062 254.131 494.062 255.628C494.124 258.312 492.002 259.997 488.633 259.997C485.512 259.997 483.079 258.686 481.893 255.878C481.207 254.318 480.895 252.259 480.707 250.948L478.898 251.198C479.023 254.755 478.835 258.873 478.773 260.433C480.583 261.245 484.264 262.243 487.759 262.243C493.188 262.243 499.241 259.685 499.241 253.444C499.241 250.636 497.931 248.39 494.686 247.017C492.19 245.894 488.196 244.645 486.137 243.585C484.764 242.898 483.828 241.962 483.828 240.152C483.828 237.594 485.575 235.909 488.383 235.909C492.252 235.909 494.873 239.154 495.31 243.897L497.244 243.46Z" fill="#FFFBF0"/>
<path d="M515.142 275.722C516.952 275.66 519.635 275.473 523.442 275.473C527.061 275.473 529.62 275.597 531.492 275.597L531.804 273.6C527.124 273.413 526.624 273.164 526.5 271.666C526.312 268.608 526.375 265.862 526.375 260.371C527.935 261.557 530.556 262.243 532.989 262.243C541.975 262.243 546.905 256.128 546.905 246.642C546.905 242.586 545.782 239.279 544.035 237.157C542.35 235.035 539.916 233.725 536.609 233.725C532.74 233.725 529.557 235.722 526.5 238.717C526.375 237.282 526.25 235.16 526.125 233.787C523.067 234.349 519.573 234.661 516.515 234.848L516.141 236.783C519.76 236.595 520.384 236.783 520.509 237.781C520.571 239.029 520.634 241.276 520.634 246.081V259.872C520.634 266.799 520.446 269.981 520.259 271.978C520.197 273.164 519.51 273.476 515.454 273.725L515.142 275.722ZM532.74 259.934C530.556 259.934 528.372 258.873 527.061 256.876C526.749 256.315 526.5 255.753 526.5 255.004C526.375 251.635 526.437 248.764 526.5 243.834C526.5 242.649 526.749 242.025 527.186 241.276C528.621 239.029 530.93 237.157 533.988 237.157C536.172 237.157 537.67 238.156 538.793 239.778C539.979 241.525 540.603 244.583 540.603 247.516C540.603 254.318 538.543 259.934 532.74 259.934Z" fill="#FFFBF0"/>
<path d="M566.297 233.725C557.249 233.725 552.194 240.277 552.194 248.202C552.194 256.252 556.625 262.243 565.923 262.243C574.722 262.243 579.901 256.44 579.901 247.766C579.901 239.528 574.784 233.725 566.297 233.725ZM565.985 235.847C568.606 235.847 570.416 237.282 571.602 239.279C572.663 241.213 573.349 244.521 573.349 248.39C573.349 252.071 572.725 255.004 571.789 256.876C570.603 259.061 568.856 260.059 566.485 260.059C563.989 260.059 561.929 258.811 560.619 256.377C559.496 254.256 558.809 250.948 558.809 247.204C558.809 243.647 559.496 240.589 560.681 238.842C561.867 237.032 563.489 235.847 565.985 235.847Z" fill="#FFFBF0"/>
<path d="M601.146 236.533C604.703 236.595 605.327 236.72 605.451 237.656C605.576 238.904 605.639 240.776 605.639 243.585V249.263C605.639 250.636 605.514 251.635 604.952 253.07C603.517 256.44 600.522 258.998 597.027 258.998C595.155 258.998 594.094 258.124 593.782 256.814C593.408 255.379 593.345 251.697 593.408 246.268C593.408 239.029 593.657 235.597 593.907 233.975C590.475 234.411 587.105 234.536 583.735 234.536L583.548 236.471C586.793 236.471 587.479 236.595 587.542 237.469C587.604 238.405 587.667 240.028 587.667 242.836C587.667 246.767 587.542 252.446 587.479 255.628C587.479 257.188 587.729 258.437 588.291 259.435C588.977 260.683 590.662 262.243 594.406 262.243C599.648 262.243 603.704 258.998 605.576 256.44C605.576 258.249 605.639 260.745 605.763 262.368C609.32 261.806 612.69 261.619 616.06 261.432L616.247 259.56C612.129 259.622 611.754 259.435 611.629 258.249C611.504 256.689 611.38 254.256 611.38 250.636V243.21C611.38 239.216 611.567 235.909 611.629 234.099C608.01 234.411 604.515 234.536 601.083 234.536L601.146 236.533Z" fill="#FFFBF0"/>
<path d="M615.569 236.408C618.502 236.595 619.001 236.97 619.937 239.092C621.372 242.337 626.053 254.568 628.861 262.181C629.984 261.993 631.107 261.931 632.293 261.931C634.477 255.691 637.784 246.83 640.905 239.903C642.153 237.22 643.026 236.658 645.959 236.408L646.022 234.411C644.774 234.411 643.089 234.599 640.78 234.599C638.908 234.599 636.848 234.411 634.664 234.411L634.602 236.408L637.41 236.72C638.408 236.783 638.596 237.282 638.221 238.468C636.911 243.148 634.165 250.262 632.293 255.254C630.92 251.51 627.8 243.46 626.115 238.28C625.741 237.157 625.928 236.783 626.926 236.658L629.36 236.408L629.11 234.411C627.113 234.411 624.368 234.599 621.809 234.599C619.563 234.599 616.879 234.474 615.569 234.411V236.408Z" fill="#FFFBF0"/>
<path d="M669.721 253.132C667.973 257.438 665.54 259.061 661.92 259.061C659.112 259.061 657.053 258 655.68 255.878C654.557 254.193 653.683 251.323 653.808 248.14C656.616 248.202 659.986 248.202 662.17 248.14C666.101 248.078 669.096 247.766 670.282 247.329C671.281 246.892 671.655 246.018 671.655 244.77C671.717 240.839 669.908 233.725 660.797 233.725C652.06 233.725 647.505 240.652 647.505 248.514C647.505 252.259 648.441 255.816 650.251 258.062C652.31 260.745 655.368 262.243 660.235 262.243C665.477 262.243 669.596 259.872 671.593 254.193L669.721 253.132ZM660.36 235.847C664.416 235.847 665.914 240.028 665.914 243.335C665.914 244.708 665.477 245.332 664.603 245.519C663.667 245.706 662.045 245.894 659.112 245.894C657.302 245.894 655.555 245.894 653.933 245.894C654.12 241.026 656.054 235.847 660.36 235.847Z" fill="#FFFBF0"/>
<path d="M678.772 244.333C679.147 242.773 679.521 241.213 680.083 239.653C680.832 237.656 681.705 237.22 684.326 236.97C686.698 236.72 689.381 236.783 691.752 236.783C690.317 239.716 682.392 252.009 675.715 260.121L676.526 261.557C677.649 261.494 679.459 261.369 683.078 261.369C689.942 261.369 697.368 261.494 699.553 261.681C699.677 258.873 700.114 253.881 700.613 251.073L698.741 250.574C697.493 256.876 695.996 258.499 693.499 258.811C691.627 259.061 688.507 259.248 683.765 259.248C686.822 254.568 696.37 240.527 697.805 238.218C698.554 237.095 699.178 235.784 699.365 234.411C696.807 234.474 694.56 234.599 689.755 234.599H684.451C680.832 234.599 678.585 234.411 677.462 233.975C677.462 237.594 677.025 241.962 676.775 244.708L678.772 244.333Z" fill="#FFFBF0"/>
<path d="M715.755 236.408C718.688 236.595 719.187 236.97 720.123 239.092C721.558 242.337 726.239 254.568 729.047 262.181C730.17 261.993 731.293 261.931 732.479 261.931C734.663 255.691 737.97 246.83 741.09 239.903C742.339 237.22 743.212 236.658 746.145 236.408L746.207 234.411C744.959 234.411 743.275 234.599 740.966 234.599C739.094 234.599 737.034 234.411 734.85 234.411L734.788 236.408L737.596 236.72C738.594 236.783 738.782 237.282 738.407 238.468C737.097 243.148 734.351 250.262 732.479 255.254C731.106 251.51 727.986 243.46 726.301 238.28C725.927 237.157 726.114 236.783 727.112 236.658L729.546 236.408L729.296 234.411C727.299 234.411 724.554 234.599 721.995 234.599C719.749 234.599 717.065 234.474 715.755 234.411V236.408Z" fill="#FFFBF0"/>
<path d="M762.282 233.725C753.233 233.725 748.179 240.277 748.179 248.202C748.179 256.252 752.609 262.243 761.907 262.243C770.706 262.243 775.885 256.44 775.885 247.766C775.885 239.528 770.768 233.725 762.282 233.725ZM761.97 235.847C764.59 235.847 766.4 237.282 767.586 239.279C768.647 241.213 769.333 244.521 769.333 248.39C769.333 252.071 768.709 255.004 767.773 256.876C766.587 259.061 764.84 260.059 762.469 260.059C759.973 260.059 757.913 258.811 756.603 256.377C755.48 254.256 754.793 250.948 754.793 247.204C754.793 243.647 755.48 240.589 756.665 238.842C757.851 237.032 759.473 235.847 761.97 235.847Z" fill="#FFFBF0"/>
<path d="M797.13 236.533C800.687 236.595 801.311 236.72 801.435 237.656C801.56 238.904 801.623 240.776 801.623 243.585V249.263C801.623 250.636 801.498 251.635 800.936 253.07C799.501 256.44 796.506 258.998 793.011 258.998C791.139 258.998 790.078 258.124 789.766 256.814C789.392 255.379 789.329 251.697 789.392 246.268C789.392 239.029 789.641 235.597 789.891 233.975C786.459 234.411 783.089 234.536 779.719 234.536L779.532 236.471C782.777 236.471 783.463 236.595 783.526 237.469C783.588 238.405 783.651 240.028 783.651 242.836C783.651 246.767 783.526 252.446 783.463 255.628C783.463 257.188 783.713 258.437 784.275 259.435C784.961 260.683 786.646 262.243 790.39 262.243C795.632 262.243 799.688 258.998 801.56 256.44C801.56 258.249 801.623 260.745 801.747 262.368C805.304 261.806 808.674 261.619 812.044 261.432L812.231 259.56C808.113 259.622 807.738 259.435 807.613 258.249C807.489 256.689 807.364 254.256 807.364 250.636V243.21C807.364 239.216 807.551 235.909 807.613 234.099C803.994 234.411 800.499 234.536 797.067 234.536L797.13 236.533Z" fill="#FFFBF0"/>
<path d="M834.488 243.46C834.301 240.776 834.363 236.97 834.862 233.725L832.866 233.163L832.117 235.347C831.181 234.536 828.685 233.725 826.064 233.725C820.759 233.725 816.391 236.783 816.391 242.149C816.391 245.644 818.326 247.703 821.446 249.014C823.63 249.95 827 251.26 829.121 252.259C830.744 253.007 831.305 254.131 831.305 255.628C831.368 258.312 829.246 259.997 825.876 259.997C822.756 259.997 820.323 258.686 819.137 255.878C818.45 254.318 818.138 252.259 817.951 250.948L816.142 251.198C816.266 254.755 816.079 258.873 816.017 260.433C817.826 261.245 821.508 262.243 825.003 262.243C830.432 262.243 836.485 259.685 836.485 253.444C836.485 250.636 835.175 248.39 831.93 247.017C829.433 245.894 825.44 244.645 823.38 243.585C822.007 242.898 821.071 241.962 821.071 240.152C821.071 237.594 822.819 235.909 825.627 235.909C829.496 235.909 832.117 239.154 832.554 243.897L834.488 243.46Z" fill="#FFFBF0"/>
<path d="M854.383 236.845L858.564 237.22V248.951C858.564 253.444 858.439 256.502 858.377 258C858.252 259.061 857.69 259.373 854.258 259.56L854.196 261.557C856.13 261.557 859.063 261.369 861.746 261.369C864.43 261.369 867.55 261.557 869.547 261.557L869.672 259.56C868.486 259.497 867.113 259.31 865.99 259.185C864.929 259.061 864.492 258.624 864.492 257.5C864.367 255.878 864.367 252.82 864.367 248.764C864.367 243.085 864.367 239.528 864.43 237.282L870.545 236.845L870.92 234.661H864.43C864.367 230.542 864.43 227.734 864.742 225.737C865.241 223.054 866.427 221.432 868.236 221.432C870.608 221.432 871.232 223.304 871.232 225.425C871.232 226.424 871.856 227.11 872.854 227.11C874.539 227.11 875.974 225.987 875.974 224.177C875.974 221.806 873.915 219.247 869.422 219.247C866.427 219.247 863.93 220.433 862.058 222.43C859.625 224.989 858.751 228.483 858.626 233.039V234.661H854.508L854.383 236.845Z" fill="#FFFBF0"/>
<path d="M882.217 221.619C880.157 221.619 878.66 223.179 878.66 225.238C878.66 227.36 880.157 228.608 881.967 228.608C884.026 228.608 885.586 227.297 885.586 225.176C885.586 223.054 884.401 221.619 882.217 221.619ZM889.705 259.56C886.398 259.373 885.711 259.123 885.649 257.75C885.586 256.377 885.524 254.318 885.524 250.636V243.21C885.524 238.655 885.649 235.223 885.711 233.725C882.716 234.411 878.535 234.661 875.54 234.786L875.415 236.783C878.909 236.72 879.533 236.845 879.596 237.656C879.658 238.655 879.72 240.589 879.72 243.772V250.574C879.72 254.068 879.596 256.627 879.533 257.812C879.471 258.998 878.972 259.373 875.165 259.56L875.103 261.557C877.037 261.557 878.909 261.369 882.154 261.369C885.212 261.369 887.583 261.557 889.58 261.557L889.705 259.56Z" fill="#FFFBF0"/>
<path d="M915.148 253.132C913.4 257.438 910.967 259.061 907.347 259.061C904.539 259.061 902.48 258 901.107 255.878C899.984 254.193 899.11 251.323 899.235 248.14C902.043 248.202 905.413 248.202 907.597 248.14C911.528 248.078 914.524 247.766 915.709 247.329C916.708 246.892 917.082 246.018 917.082 244.77C917.144 240.839 915.335 233.725 906.224 233.725C897.487 233.725 892.932 240.652 892.932 248.514C892.932 252.259 893.868 255.816 895.678 258.062C897.737 260.745 900.795 262.243 905.662 262.243C910.904 262.243 915.023 259.872 917.02 254.193L915.148 253.132ZM905.787 235.847C909.843 235.847 911.341 240.028 911.341 243.335C911.341 244.708 910.904 245.332 910.03 245.519C909.094 245.706 907.472 245.894 904.539 245.894C902.729 245.894 900.982 245.894 899.36 245.894C899.547 241.026 901.481 235.847 905.787 235.847Z" fill="#FFFBF0"/>
<path d="M925.192 250.324C925.192 253.819 925.13 256.752 924.942 258C924.818 259.061 924.256 259.373 920.949 259.56L920.761 261.557C923.133 261.557 925.379 261.369 928.125 261.369C930.995 261.369 933.866 261.557 936.3 261.557L936.549 259.56C931.682 259.31 931.183 259.061 931.058 257.625C930.995 256.065 930.995 253.257 930.995 246.705C930.995 245.394 931.12 244.396 931.432 243.335C932.181 240.776 933.616 238.218 935.426 238.218C936.861 238.218 937.236 238.967 937.673 240.215C937.985 240.901 938.546 241.151 939.545 241.151C940.543 241.151 942.54 240.277 942.54 237.532C942.54 235.784 941.167 233.725 938.546 233.725C934.552 233.725 932.368 236.783 930.808 240.028H930.683C930.621 238.78 930.434 235.597 930.184 233.975L929.935 233.787C927.314 234.474 923.757 234.786 921.011 234.848L920.949 236.845L923.507 236.908C924.318 236.908 924.693 237.22 924.817 237.844C925.005 239.029 925.192 241.713 925.192 245.519V250.324Z" fill="#FFFBF0"/>
</svg>
